<svg width="40" height="40" viewBox="0 0 40 40" fill="none" xmlns="http://www.w3.org/2000/svg">
<path d="M7 9.4375C7 9.22201 7.0856 9.01535 7.23798 8.86298C7.39035 8.7106 7.59701 8.625 7.8125 8.625H10.25C10.4312 8.62505 10.6073 8.68569 10.7501 8.79729C10.8929 8.90889 10.9943 9.06502 11.0381 9.24087L11.6962 11.875H30.5625C30.6818 11.8751 30.7996 11.9015 30.9076 11.9523C31.0155 12.003 31.111 12.077 31.1871 12.1688C31.2633 12.2606 31.3183 12.3681 31.3482 12.4836C31.3782 12.5991 31.3823 12.7197 31.3604 12.837L28.9229 25.837C28.888 26.0232 28.7892 26.1913 28.6435 26.3124C28.4978 26.4335 28.3144 26.4998 28.125 26.5H13.5C13.3106 26.4998 13.1272 26.4335 12.9815 26.3124C12.8358 26.1913 12.737 26.0232 12.7021 25.837L10.2662 12.8614L9.61625 10.25H7.8125C7.59701 10.25 7.39035 10.1644 7.23798 10.012C7.0856 9.85965 7 9.65299 7 9.4375ZM15.125 26.5C14.263 26.5 13.4364 26.8424 12.8269 27.4519C12.2174 28.0614 11.875 28.888 11.875 29.75C11.875 30.612 12.2174 31.4386 12.8269 32.0481C13.4364 32.6576 14.263 33 15.125 33C15.987 33 16.8136 32.6576 17.4231 32.0481C18.0326 31.4386 18.375 30.612 18.375 29.75C18.375 28.888 18.0326 28.0614 17.4231 27.4519C16.8136 26.8424 15.987 26.5 15.125 26.5ZM26.5 26.5C25.638 26.5 24.8114 26.8424 24.2019 27.4519C23.5924 28.0614 23.25 28.888 23.25 29.75C23.25 30.612 23.5924 31.4386 24.2019 32.0481C24.8114 32.6576 25.638 33 26.5 33C27.362 33 28.1886 32.6576 28.7981 32.0481C29.4076 31.4386 29.75 30.612 29.75 29.75C29.75 28.888 29.4076 28.0614 28.7981 27.4519C28.1886 26.8424 27.362 26.5 26.5 26.5ZM15.125 28.125C15.556 28.125 15.9693 28.2962 16.274 28.601C16.5788 28.9057 16.75 29.319 16.75 29.75C16.75 30.181 16.5788 30.5943 16.274 30.899C15.9693 31.2038 15.556 31.375 15.125 31.375C14.694 31.375 14.2807 31.2038 13.976 30.899C13.6712 30.5943 13.5 30.181 13.5 29.75C13.5 29.319 13.6712 28.9057 13.976 28.601C14.2807 28.2962 14.694 28.125 15.125 28.125ZM26.5 28.125C26.931 28.125 27.3443 28.2962 27.649 28.601C27.9538 28.9057 28.125 29.319 28.125 29.75C28.125 30.181 27.9538 30.5943 27.649 30.899C27.3443 31.2038 26.931 31.375 26.5 31.375C26.069 31.375 25.6557 31.2038 25.351 30.899C25.0462 30.5943 24.875 30.181 24.875 29.75C24.875 29.319 25.0462 28.9057 25.351 28.601C25.6557 28.2962 26.069 28.125 26.5 28.125Z" fill="white"/>
</svg>
