<svg width="40" height="40" viewBox="0 0 40 40" fill="none" xmlns="http://www.w3.org/2000/svg">
<rect width="40" height="40" rx="4" fill="white"/>
<path d="M31.367 20.3861L20.867 8.71947C20.4248 8.22714 19.5755 8.22714 19.1333 8.71947L8.63331 20.3861C8.48218 20.5537 8.38297 20.7615 8.34776 20.9844C8.31255 21.2072 8.34285 21.4355 8.43498 21.6415C8.62164 22.0626 9.03931 22.3333 9.50014 22.3333H11.8335V30.5C11.8335 30.8094 11.9564 31.1061 12.1752 31.3249C12.394 31.5437 12.6907 31.6666 13.0001 31.6666H16.5001C16.8096 31.6666 17.1063 31.5437 17.3251 31.3249C17.5439 31.1061 17.6668 30.8094 17.6668 30.5V25.8333H22.3335V30.5C22.3335 30.8094 22.4564 31.1061 22.6752 31.3249C22.894 31.5437 23.1907 31.6666 23.5001 31.6666H27.0001C27.3096 31.6666 27.6063 31.5437 27.8251 31.3249C28.0439 31.1061 28.1668 30.8094 28.1668 30.5V22.3333H30.5001C30.7261 22.3343 30.9474 22.2695 31.1372 22.1468C31.3269 22.0241 31.4769 21.8489 31.5688 21.6425C31.6607 21.4361 31.6905 21.2074 31.6547 20.9843C31.6189 20.7612 31.5189 20.5534 31.367 20.3861Z" fill="#EC2578"/>
</svg>
