<svg width="19" height="19" viewBox="0 0 19 19" fill="none" xmlns="http://www.w3.org/2000/svg">
<path d="M15.8332 9.49998C15.8332 8.62677 15.123 7.91665 14.2498 7.91665H13.4582V5.54165C13.4582 3.35902 11.6825 1.58331 9.49984 1.58331C7.31721 1.58331 5.5415 3.35902 5.5415 5.54165V7.91665H4.74984C3.87663 7.91665 3.1665 8.62677 3.1665 9.49998V15.8333C3.1665 16.7065 3.87663 17.4166 4.74984 17.4166H14.2498C15.123 17.4166 15.8332 16.7065 15.8332 15.8333V9.49998ZM7.12484 5.54165C7.12484 4.23223 8.19042 3.16665 9.49984 3.16665C10.8093 3.16665 11.8748 4.23223 11.8748 5.54165V7.91665H7.12484V5.54165Z" fill="black"/>
</svg>
