<svg width="98" height="95" viewBox="0 0 98 95" fill="none" xmlns="http://www.w3.org/2000/svg">
<path d="M39.9699 31.9245C35.5573 31.9245 31.979 35.4661 31.979 39.8355C31.979 43.3626 33.3774 51.7339 47.1425 60.1962C47.3891 60.3462 47.6721 60.4256 47.9607 60.4256C48.2494 60.4256 48.5324 60.3462 48.779 60.1962C62.5441 51.7339 63.9425 43.3626 63.9425 39.8355C63.9425 35.4661 60.3642 31.9245 55.9516 31.9245C51.5391 31.9245 47.9607 36.719 47.9607 36.719C47.9607 36.719 44.3824 31.9245 39.9699 31.9245Z" stroke="white" stroke-width="2.33879" stroke-linecap="round" stroke-linejoin="round"/>
<g clip-path="url(#clip0_513_604)">
<path d="M43.3711 38.3562C41.3365 38.3562 39.6875 40.2803 39.6875 42.6537C39.6875 44.6858 40.8969 46.3889 42.5214 46.8358L41.9112 56.7766C41.8998 56.9344 41.9212 57.0927 41.9742 57.2417C42.0271 57.3908 42.1104 57.5272 42.2188 57.6423C42.3271 57.7575 42.4582 57.8489 42.6037 57.9108C42.7492 57.9728 42.906 58.0038 43.0641 58.0021H43.6781C44.3534 58.0021 44.8715 57.4507 44.831 56.7766L44.2208 46.8358C45.8452 46.3877 47.0547 44.6858 47.0547 42.6537C47.0547 40.2803 45.4057 38.3562 43.3711 38.3562ZM55.7517 38.3562L54.7289 44.4955H53.9614L53.4494 38.3562H52.9374L52.4254 44.4955H51.658L50.6352 38.3562H50.1231V46.3373C50.1231 46.5002 50.1878 46.6563 50.3029 46.7714C50.4181 46.8866 50.5742 46.9513 50.7371 46.9513H52.3357L51.7329 56.7766C51.7215 56.9344 51.7429 57.0927 51.7959 57.2417C51.8488 57.3908 51.9321 57.5272 52.0405 57.6423C52.1488 57.7575 52.2799 57.8489 52.4254 57.9108C52.5709 57.9728 52.7277 58.0038 52.8858 58.0021H53.4998C54.1751 58.0021 54.6932 57.4507 54.6527 56.7766L54.0498 46.9513H55.6485C55.8113 46.9513 55.9675 46.8866 56.0826 46.7714C56.1978 46.6563 56.2625 46.5002 56.2625 46.3373V38.3562H55.7504H55.7517Z" fill="white"/>
</g>
<path d="M51.1682 29.9365C43.4818 29.9365 38.8286 24.8264 38.6081 24.5788C38.4496 24.4007 38.3703 24.1656 38.3887 23.9283L39.0849 14.8992C37.8128 14.3556 36.4734 13.4911 35.7913 12.1426C35.0461 10.6698 35.2073 8.94907 36.2708 7.02714C37.4475 4.90073 39.761 3.62687 41.897 3.93513C42.6801 4.04693 43.3734 4.3564 43.953 4.83641C44.3395 3.72745 45.0666 2.34619 46.4231 1.33657C48.1757 0.0321517 50.5039 -0.31988 53.3466 0.290993C55.9408 0.848527 58.1059 2.86557 58.862 5.42943C59.1534 6.41727 59.2092 7.4113 59.0448 8.34552C60.676 8.35188 62.1886 8.90697 63.3218 9.94128C64.332 10.8634 65.4886 12.579 65.2623 15.5174C65.1062 17.5493 64.3424 19.0558 62.9925 19.9945C61.8987 20.7551 60.6009 20.999 59.4668 21.0274L55.1985 29.1515C55.0745 29.3876 54.8499 29.5542 54.5879 29.6046C53.3907 29.8355 52.2486 29.9365 51.1679 29.9365L51.1682 29.9365ZM40.1669 23.6718C41.3212 24.8204 46.303 29.2149 53.8455 27.9569L57.5575 20.8912C57.0513 20.8085 56.7225 20.7166 56.6785 20.7038C56.2127 20.5705 55.9434 20.0851 56.0767 19.6198C56.2095 19.1545 56.6954 18.8827 57.1607 19.018C57.1888 19.0258 60.1517 19.84 61.996 18.5519C62.8892 17.9281 63.3995 16.8622 63.5135 15.3838C63.6493 13.6159 63.1739 12.1822 62.1391 11.2369C61.1943 10.3745 59.8527 9.97974 58.4181 10.1314C58.1596 10.6014 57.8332 11.0383 57.4413 11.4302C57.1183 11.7529 56.6009 11.7747 56.2528 11.4777C55.9049 11.1814 55.8428 10.6674 56.1104 10.2968L56.9955 9.07068C57.4386 8.13984 57.51 7.04704 57.179 5.92531C56.6016 3.96869 54.9528 2.4301 52.9773 2.00542C50.6512 1.50562 48.7986 1.75369 47.4692 2.74324C45.7821 3.99875 45.3744 6.09848 45.2916 6.68493L45.2975 6.70376C45.4455 7.05458 45.5666 7.43476 45.6576 7.84109C45.7604 8.29881 45.4847 8.75602 45.0318 8.87908C44.5775 9.00214 44.1098 8.74698 43.9667 8.30002L43.6542 7.32271C43.2337 6.37496 42.5413 5.79809 41.6475 5.67014C40.2391 5.46685 38.6225 6.39575 37.8039 7.87534C37.0397 9.2566 36.8882 10.4247 37.3535 11.3471C37.914 12.4577 39.319 13.1701 40.5539 13.5811L42.4392 14.0293C42.8927 14.1374 43.1826 14.5812 43.0985 15.0402C43.0143 15.4989 42.5879 15.8101 42.1236 15.7518C42.0602 15.7438 41.533 15.6718 40.7979 15.4798L40.1669 23.6718Z" fill="white"/>
<path d="M52.5701 26.8257C44.8787 26.8257 39.7658 21.7201 39.5246 21.4742C39.2531 21.1978 39.2575 20.7535 39.5337 20.4825C39.8104 20.2107 40.2544 20.2153 40.526 20.4913C40.6182 20.5837 46.852 26.7585 55.5335 25.1485C55.9154 25.0783 56.2802 25.3302 56.3511 25.7107C56.4216 26.0916 56.1699 26.4578 55.7889 26.5283C54.6738 26.735 53.598 26.8258 52.57 26.8258L52.5701 26.8257Z" fill="white"/>
<path d="M42.8317 23.6179C42.804 23.6179 42.7759 23.6162 42.7475 23.6125C42.3627 23.5665 42.0885 23.2177 42.1344 22.8329L42.6902 18.1869C42.7362 17.8021 43.0844 17.5271 43.4702 17.5738C43.855 17.6198 44.1292 17.9687 44.0832 18.3535L43.5274 22.9995C43.4846 23.3561 43.1817 23.6179 42.8317 23.6179L42.8317 23.6179Z" fill="white"/>
<path d="M52.2999 26.3065C52.2116 26.3065 52.1218 26.2897 52.0352 26.2542C51.6768 26.1079 51.5043 25.6984 51.6509 25.3399L53.4206 21.0044C53.5669 20.646 53.9769 20.4728 54.3348 20.6201C54.6932 20.7664 54.8657 21.1759 54.7192 21.5343L52.9494 25.8699C52.8386 26.1417 52.5766 26.3065 52.2999 26.3065L52.2999 26.3065Z" fill="white"/>
<path d="M46.9635 25.5444C46.8896 25.5444 46.8138 25.5324 46.7394 25.5074C46.3724 25.3836 46.175 24.9859 46.2985 24.6187L47.1736 22.0213C47.2974 21.6541 47.6947 21.4569 48.0624 21.5805C48.4294 21.7042 48.6268 22.102 48.5032 22.4692L47.6281 25.0666C47.5296 25.3594 47.2563 25.5444 46.9635 25.5444L46.9635 25.5444Z" fill="white"/>
<path d="M47.2526 7.08974C47.2201 7.08974 47.1871 7.08729 47.1541 7.08264C46.7705 7.02858 46.5035 6.67361 46.5571 6.29027C46.7448 4.95918 47.9296 2.48857 51.0884 2.6576C51.4752 2.67864 51.7717 3.00891 51.7509 3.39592C51.7301 3.7827 51.4089 4.07919 51.0126 4.0584C48.3482 3.91504 47.9614 6.38077 47.9462 6.48574C47.8973 6.83631 47.5966 7.08975 47.2527 7.08975L47.2526 7.08974Z" fill="white"/>
<path d="M61.8854 14.85C61.5216 14.85 61.2141 14.5694 61.1867 14.2007C61.0605 12.5166 59.5868 12.2774 59.4187 12.2556C59.0369 12.2061 58.7633 11.857 58.8098 11.4749C58.8568 11.0925 59.2027 10.8195 59.5824 10.8623C60.5456 10.9717 62.4124 11.7885 62.5851 14.096C62.6142 14.482 62.3246 14.8189 61.938 14.848C61.9209 14.8493 61.9031 14.85 61.8854 14.85L61.8854 14.85Z" fill="white"/>
<path fill-rule="evenodd" clip-rule="evenodd" d="M53.5836 3.72035C53.5836 4.0949 53.2797 4.39848 52.9052 4.39848C52.5306 4.39848 52.2271 4.09488 52.2271 3.72035C52.2271 3.34556 52.5307 3.04196 52.9052 3.04196C53.2797 3.04196 53.5836 3.34556 53.5836 3.72035Z" fill="white"/>
<path d="M5.58432 87.2179H2.10126V70.522H11.6711V73.4227H5.58432V77.728H11.2486V80.6172H5.58432V87.2179Z" fill="white"/>
<path d="M24.7397 69.1668C20.4371 69.1668 16.8323 72.1877 15.9187 76.2182C15.9175 76.223 15.9138 76.2267 15.9126 76.2316C15.9108 76.2389 15.9108 76.2462 15.9096 76.2534C15.7686 76.8863 15.6885 77.5424 15.6885 78.2179C15.6885 83.2087 19.7494 87.269 24.7396 87.269C29.7297 87.269 33.7906 83.2087 33.7906 78.2179C33.7906 73.227 29.7304 69.1668 24.7396 69.1668L24.7397 69.1668ZM29.2647 74.5013C29.2647 74.1994 29.5094 73.9546 29.8114 73.9546C30.1133 73.9546 30.3581 74.1994 30.3581 74.5013V75.5558C30.3581 75.8578 30.1133 76.1025 29.8114 76.1025C29.5094 76.1025 29.2647 75.8578 29.2647 75.5558V74.5013ZM25.336 71.741C25.5498 71.5272 25.8961 71.5272 26.1093 71.741L26.8559 72.4876C27.0697 72.7015 27.0697 73.0478 26.8559 73.2609C26.749 73.3677 26.6092 73.4213 26.4689 73.4213C26.3285 73.4213 26.1889 73.3679 26.0819 73.2609L25.3353 72.5143C25.1229 72.3012 25.1229 71.9543 25.336 71.741H25.336ZM24.7395 75.5753C26.1962 75.5753 27.3819 76.7604 27.3819 78.2177C27.3819 79.6751 26.1969 80.8602 24.7395 80.8602C23.2822 80.8602 22.0971 79.6751 22.0971 78.2177C22.0971 76.7604 23.2828 75.5753 24.7395 75.5753ZM21.1823 72.8606L21.9288 72.114C22.1427 71.9002 22.489 71.9002 22.7021 72.114C22.9153 72.3279 22.9159 72.6742 22.7021 72.8873L21.9555 73.6339C21.8487 73.7407 21.7089 73.7943 21.5686 73.7943C21.4282 73.7943 21.2886 73.7409 21.1816 73.6339C20.9684 73.4206 20.9684 73.0737 21.1823 72.8606H21.1823ZM18.8806 75.0893H19.9357C20.2377 75.0893 20.4824 75.3341 20.4824 75.636C20.4824 75.938 20.2377 76.1828 19.9357 76.1828H18.8806C18.5786 76.1828 18.3339 75.938 18.3339 75.636C18.3339 75.3341 18.5787 75.0893 18.8806 75.0893ZM24.7396 86.1756C20.4783 86.1756 16.9995 82.8066 16.8013 78.5938C16.8511 78.6296 16.8973 78.6692 16.9508 78.7014C17.3267 78.9274 17.7483 79.0416 18.1735 79.0416C18.6049 79.0416 19.0404 78.9243 19.4365 78.6868C19.8634 78.4317 20.395 78.4317 20.8221 78.6868L21.0577 78.8277C21.3501 80.5979 22.8869 81.9537 24.7396 81.9537C26.5838 81.9537 28.1164 80.6094 28.4177 78.8502C29.1229 79.14 29.9297 79.0878 30.5979 78.6881C30.6028 78.6851 30.6082 78.682 30.6131 78.6783C31.0388 78.4317 31.5632 78.4336 31.9872 78.6869L32.6475 79.0829C32.2149 83.0654 28.8351 86.1756 24.7395 86.1756L24.7396 86.1756Z" fill="white"/>
<path d="M45.5307 69.1668C41.2282 69.1668 37.6233 72.1877 36.7097 76.2182C36.7085 76.223 36.7048 76.2267 36.7036 76.2316C36.7019 76.2389 36.7019 76.2462 36.7006 76.2534C36.5596 76.8863 36.4795 77.5424 36.4795 78.2179C36.4795 83.2087 40.5404 87.269 45.5306 87.269C50.5207 87.269 54.5817 83.2087 54.5817 78.2179C54.5817 73.227 50.5214 69.1668 45.5306 69.1668L45.5307 69.1668ZM50.0557 74.5013C50.0557 74.1994 50.3004 73.9546 50.6024 73.9546C50.9044 73.9546 51.1491 74.1994 51.1491 74.5013V75.5558C51.1491 75.8578 50.9044 76.1025 50.6024 76.1025C50.3004 76.1025 50.0557 75.8578 50.0557 75.5558V74.5013ZM46.127 71.741C46.3408 71.5272 46.6872 71.5272 46.9003 71.741L47.6469 72.4876C47.8607 72.7015 47.8607 73.0478 47.6469 73.2609C47.54 73.3677 47.4002 73.4213 47.2599 73.4213C47.1196 73.4213 46.9799 73.3679 46.8729 73.2609L46.1264 72.5143C45.9139 72.3012 45.9139 71.9543 46.127 71.741H46.127ZM45.5305 75.5753C46.9872 75.5753 48.173 76.7604 48.173 78.2177C48.173 79.6751 46.9879 80.8602 45.5305 80.8602C44.0732 80.8602 42.8881 79.6751 42.8881 78.2177C42.8881 76.7604 44.0739 75.5753 45.5305 75.5753ZM41.9733 72.8606L42.7199 72.114C42.9337 71.9002 43.28 71.9002 43.4931 72.114C43.7063 72.3279 43.707 72.6742 43.4931 72.8873L42.7465 73.6339C42.6397 73.7407 42.4999 73.7943 42.3596 73.7943C42.2192 73.7943 42.0796 73.7409 41.9726 73.6339C41.7595 73.4206 41.7595 73.0737 41.9733 72.8606H41.9733ZM39.6716 75.0893H40.7267C41.0287 75.0893 41.2735 75.3341 41.2735 75.636C41.2735 75.938 41.0287 76.1828 40.7267 76.1828H39.6716C39.3696 76.1828 39.1249 75.938 39.1249 75.636C39.1249 75.3341 39.3697 75.0893 39.6716 75.0893ZM45.5306 86.1756C41.2694 86.1756 37.7905 82.8066 37.5923 78.5938C37.6421 78.6296 37.6883 78.6692 37.7418 78.7014C38.1178 78.9274 38.5393 79.0416 38.9646 79.0416C39.3959 79.0416 39.8314 78.9243 40.2275 78.6868C40.6545 78.4317 41.186 78.4317 41.6131 78.6868L41.8488 78.8277C42.1411 80.5979 43.6779 81.9537 45.5306 81.9537C47.3748 81.9537 48.9074 80.6094 49.2087 78.8502C49.9139 79.14 50.7207 79.0878 51.3889 78.6881C51.3938 78.6851 51.3992 78.682 51.4041 78.6783C51.8299 78.4317 52.3542 78.4336 52.7782 78.6869L53.4385 79.0829C53.006 83.0654 49.6261 86.1756 45.5305 86.1756L45.5306 86.1756Z" fill="white"/>
<path d="M73.2231 78.7101C73.2231 81.4585 72.4389 83.5635 70.8706 85.0253C69.3099 86.487 67.0526 87.2179 64.0986 87.2179H59.3708V70.522H64.6125C67.3381 70.522 69.4545 71.2415 70.962 72.6804C72.4694 74.1193 73.2231 76.1292 73.2231 78.7101ZM69.5459 78.8014C69.5459 75.2156 67.9623 73.4227 64.7952 73.4227H62.911V84.2944H64.4298C67.8405 84.2944 69.5459 82.4634 69.5459 78.8014ZM77.1692 87.2179V70.522H80.7093V87.2179H77.1692ZM95.0132 87.2179H85.3977V70.522H95.0132V73.4227H88.9379V77.0885H94.5907V79.9891H88.9379V84.2944H95.0132V87.2179Z" fill="white"/>
<defs>
<clipPath id="clip0_513_604">
<rect width="19.6459" height="19.6459" fill="white" transform="translate(39.0737 38.3562)"/>
</clipPath>
</defs>
</svg>
